name C:/MyDriveSym/Projects/mobilecap/Data\Session20210816_0002\mocap\ForceDataProcessed\walking1_forces.mot
datacolumns 19
datarows 22
range 0.00000000 0.01050000
endheader 
time	R_ground_force_vx	R_ground_force_vy	R_ground_force_vz	R_ground_force_px	R_ground_force_py	R_ground_force_pz	R_ground_torque_x	R_ground_torque_y	R_ground_torque_z	L_ground_force_vx	L_ground_force_vy	L_ground_force_vz	L_ground_force_px	L_ground_force_py	L_ground_force_pz	L_ground_torque_x	L_ground_torque_y	L_ground_torque_z	
          0.00000000	         -9.61593100	         96.60528800	         10.08183600	          0.13256500	          0.00600000	         -0.25858100	          0.00000000	          0.24309300	          0.00000000	          0.00000000	          0.00000000	          0.00000000	          0.77778800	          0.00000000	         -0.25416500	          0.00000000	          0.00000000	          0.00000000	
          0.00050000	         -9.83978600	         98.22404200	         10.17513300	          0.13256500	          0.00600000	         -0.25858100	          0.00000000	          0.24383900	          0.00000000	          0.00000000	          0.00000000	          0.00000000	          0.77778800	          0.00000000	         -0.25416500	          0.00000000	          0.00000000	          0.00000000	
          0.00100000	        -10.06611100	         99.85588000	         10.26843400	          0.13256500	          0.00600000	         -0.25858100	          0.00000000	          0.24459900	          0.00000000	          0.00000000	          0.00000000	          0.00000000	          0.77778800	          0.00000000	         -0.25416500	          0.00000000	          0.00000000	          0.00000000	
          0.00150000	        -10.29491500	        101.50077600	         10.36172300	          0.13256500	          0.00600000	         -0.25858100	          0.00000000	          0.24537400	          0.00000000	          0.00000000	          0.00000000	          0.00000000	          0.77778800	          0.00000000	         -0.25416500	          0.00000000	          0.00000000	          0.00000000	
          0.00200000	        -10.52620500	        103.15870200	         10.45498500	          0.13284500	          0.00600000	         -0.25847600	          0.00000000	          0.24616200	          0.00000000	          0.00000000	          0.00000000	          0.00000000	          0.77778800	          0.00000000	         -0.25416500	          0.00000000	          0.00000000	          0.00000000	
          0.00250000	        -10.75999000	        104.82962800	         10.54820500	          0.13312200	          0.00600000	         -0.25837400	          0.00000000	          0.24696400	          0.00000000	          0.00000000	          0.00000000	          0.00000000	          0.77778800	          0.00000000	         -0.25416500	          0.00000000	          0.00000000	          0.00000000	
          0.00300000	        -10.99627700	        106.51352100	         10.64136800	          0.13339500	          0.00600000	         -0.25827300	          0.00000000	          0.24778100	          0.00000000	          0.00000000	          0.00000000	          0.00000000	          0.77778800	          0.00000000	         -0.25416500	          0.00000000	          0.00000000	          0.00000000	
          0.00350000	        -11.23507200	        108.21034400	         10.73445700	          0.13366500	          0.00600000	         -0.25817400	          0.00000000	          0.24861100	          0.00000000	          0.00000000	          0.00000000	          0.00000000	          0.77778800	          0.00000000	         -0.25416500	          0.00000000	          0.00000000	          0.00000000	
          0.00400000	        -11.47638300	        109.92006000	         10.82745700	          0.13393200	          0.00600000	         -0.25807700	          0.00000000	          0.24945500	          0.00000000	          0.00000000	          0.00000000	          0.00000000	          0.77778800	          0.00000000	         -0.25416500	          0.00000000	          0.00000000	          0.00000000	
          0.00450000	        -11.72021700	        111.64262700	         10.92035100	          0.13419500	          0.00600000	         -0.25798200	          0.00000000	          0.25031300	          0.00000000	          0.00000000	          0.00000000	          0.00000000	          0.77778800	          0.00000000	         -0.25416500	          0.00000000	          0.00000000	          0.00000000	
          0.00500000	        -11.96658000	        113.37800200	         11.01312200	          0.13445500	          0.00600000	         -0.25788900	          0.00000000	          0.25118400	          0.00000000	          0.00000000	          0.00000000	          0.00000000	          0.77778800	          0.00000000	         -0.25416500	          0.00000000	          0.00000000	          0.00000000	
          0.00550000	        -12.21547700	        115.12613800	         11.10575500	          0.13471200	          0.00600000	         -0.25779800	          0.00000000	          0.25206900	          0.00000000	          0.00000000	          0.00000000	          0.00000000	          0.77778800	          0.00000000	         -0.25416500	          0.00000000	          0.00000000	          0.00000000	
          0.00600000	        -12.46691500	        116.88698500	         11.19823100	          0.13496700	          0.00600000	         -0.25770800	          0.00000000	          0.25296800	          0.00000000	          0.00000000	          0.00000000	          0.00000000	          0.77778800	          0.00000000	         -0.25416500	          0.00000000	          0.00000000	          0.00000000	
          0.00650000	        -12.72089800	        118.66049100	         11.29053300	          0.13521800	          0.00600000	         -0.25761900	          0.00000000	          0.25388100	          0.00000000	          0.00000000	          0.00000000	          0.00000000	          0.77778800	          0.00000000	         -0.25416500	          0.00000000	          0.00000000	          0.00000000	
          0.00700000	        -12.97743300	        120.44660000	         11.38264400	          0.13546700	          0.00600000	         -0.25753200	          0.00000000	          0.25480800	          0.00000000	          0.00000000	          0.00000000	          0.00000000	          0.77778800	          0.00000000	         -0.25416500	          0.00000000	          0.00000000	          0.00000000	
          0.00750000	        -13.23652400	        122.24525400	         11.47454600	          0.13571300	          0.00600000	         -0.25744700	          0.00000000	          0.25574800	          0.00000000	          0.00000000	          0.00000000	          0.00000000	          0.77778800	          0.00000000	         -0.25416500	          0.00000000	          0.00000000	          0.00000000	
          0.00800000	        -13.49817500	        124.05639200	         11.56622000	          0.13595600	          0.00600000	         -0.25736300	          0.00000000	          0.25670300	          0.00000000	          0.00000000	          0.00000000	          0.00000000	          0.77778800	          0.00000000	         -0.25416500	          0.00000000	          0.00000000	          0.00000000	
          0.00850000	        -13.76239000	        125.87994900	         11.65764800	          0.13619700	          0.00600000	         -0.25728000	          0.00000000	          0.25767100	          0.00000000	          0.00000000	          0.00000000	          0.00000000	          0.77778800	          0.00000000	         -0.25416500	          0.00000000	          0.00000000	          0.00000000	
          0.00900000	        -14.02917400	        127.71585800	         11.74881200	          0.13643600	          0.00600000	         -0.25719900	          0.00000000	          0.25865400	          0.00000000	          0.00000000	          0.00000000	          0.00000000	          0.77778800	          0.00000000	         -0.25416500	          0.00000000	          0.00000000	          0.00000000	
          0.00950000	        -14.29853000	        129.56404700	         11.83969100	          0.13667200	          0.00600000	         -0.25711900	          0.00000000	          0.25965000	          0.00000000	          0.00000000	          0.00000000	          0.00000000	          0.77778800	          0.00000000	         -0.25416500	          0.00000000	          0.00000000	          0.00000000	
          0.01000000	        -14.57046000	        131.42444300	         11.93026800	          0.13690600	          0.00600000	         -0.25704100	          0.00000000	          0.26066100	          0.00000000	          0.00000000	          0.00000000	          0.00000000	          0.77778800	          0.00000000	         -0.25416500	          0.00000000	          0.00000000	          0.00000000	
          0.01050000	        -14.84496800	        133.29696900	         12.02052200	          0.13713800	          0.00600000	         -0.25696300	          0.00000000	          0.26168600	          0.00000000	          0.00000000	          0.00000000	          0.00000000	          0.77778800	          0.00000000	         -0.25416500	          0.00000000	          0.00000000	          0.00000000	
